{
  "accessors": [
    {
      "bufferView": 2,
      "componentType": 5126,
      "count": 5184,
      "max": [
        57.88103485107422,
        6.121614456176758,
        164.2698211669922
      ],
      "min": [
        -24.29287338256836,
        -28.300127029418945,
        55.331668853759766
      ],
      "type": "VEC3"
    },
    {
      "bufferView": 2,
      "byteOffset": 62208,
      "componentType": 5126,
      "count": 5184,
      "max": [
        0.8532527685165405,
        0.7725306153297424,
        0.8338143825531006
      ],
      "min": [
        -0.9994646310806274,
        -0.9999999403953552,
        -0.9992086887359619
      ],
      "type": "VEC3"
    },
    {
      "bufferView": 1,
      "componentType": 5126,
      "count": 5184,
      "max": [
        1.0245012044906616,
        1.0354835987091064
      ],
      "min": [
        -0.03922291100025177,
        -0.028240419924259186
      ],
      "type": "VEC2"
    },
    {
      "bufferView": 0,
      "componentType": 5125,
      "count": 30246,
      "type": "SCALAR"
    }
  ],
  "asset": {
    "extras": {
      "author": "rezlout (https://sketchfab.com/rezlout)",
      "license": "CC-BY-4.0 (http://creativecommons.org/licenses/by/4.0/)",
      "source": "https://sketchfab.com/3d-models/3eeb653029d349c3a106f275fd9e3de2",
      "title": "банданааним"
    },
    "generator": "Sketchfab-13.83.0",
    "version": "2.0"
  },
  "bufferViews": [
    {
      "buffer": 0,
      "byteLength": 120984,
      "name": "floatBufferViews",
      "target": 34963
    },
    {
      "buffer": 0,
      "byteLength": 41472,
      "byteOffset": 120984,
      "byteStride": 8,
      "name": "floatBufferViews",
      "target": 34962
    },
    {
      "buffer": 0,
      "byteLength": 124416,
      "byteOffset": 162456,
      "byteStride": 12,
      "name": "floatBufferViews",
      "target": 34962
    }
  ],
  "buffers": [
    {
      "byteLength": 286872,
      "uri": "scene.bin"
    }
  ],
  "images": [
    {
      "uri": "textures/Scene_-_Root_baseColor.jpeg"
    }
  ],
  "materials": [
    {
      "doubleSided": true,
      "name": "Scene_-_Root",
      "pbrMetallicRoughness": {
        "baseColorFactor": [
          0.5348587729029269,
          0.5348587729029269,
          0.5348587729029269,
          1.0
        ],
        "baseColorTexture": {
          "index": 0
        },
        "metallicFactor": 0.5043824895466348,
        "roughnessFactor": 0.6
      }
    }
  ],
  "meshes": [
    {
      "name": "cloth_parent__0",
      "primitives": [
        {
          "attributes": {
            "NORMAL": 1,
            "POSITION": 0,
            "TEXCOORD_0": 2
          },
          "indices": 3,
          "material": 0,
          "mode": 4
        }
      ]
    }
  ],
  "nodes": [
    {
      "children": [
        1
      ],
      "matrix": [
        0.9999867677688599,
        1.141281563859573e-18,
        -0.00513987522572279,
        0.0,
        -0.00513987522572279,
        2.2204166677949552e-16,
        -0.9999867677688599,
        0.0,
        0.0,
        1.0,
        2.220446049250313e-16,
        0.0,
        0.0,
        0.0,
        0.0,
        1.0
      ],
      "name": "Sketchfab_model"
    },
    {
      "children": [
        2
      ],
      "matrix": [
        0.009999999776482582,
        0.0,
        0.0,
        0.0,
        0.0,
        0.0,
        0.009999999776482582,
        0.0,
        0.0,
        -0.009999999776482582,
        0.0,
        0.0,
        0.0,
        0.0,
        0.0,
        1.0
      ],
      "name": "59ab6a3a015e44ef96a8274bc7a8062c.fbx"
    },
    {
      "children": [
        3
      ],
      "name": "RootNode"
    },
    {
      "children": [
        4
      ],
      "matrix": [
        2.0050048828125,
        0.0,
        0.0,
        0.0,
        -0.0,
        -3.2665675769175183e-07,
        -2.0050048828124734,
        0.0,
        0.0,
        2.0050048828124734,
        -3.2665675769175183e-07,
        0.0,
        -24.552202224731445,
        -192.9188232421875,
        -16.61849021911621,
        1.0
      ],
      "name": "cloth_parent"
    },
    {
      "mesh": 0,
      "name": "cloth_parent__0"
    }
  ],
  "samplers": [
    {
      "magFilter": 9729,
      "minFilter": 9987,
      "wrapS": 10497,
      "wrapT": 10497
    }
  ],
  "scene": 0,
  "scenes": [
    {
      "name": "Sketchfab_Scene",
      "nodes": [
        0
      ]
    }
  ],
  "textures": [
    {
      "sampler": 0,
      "source": 0
    }
  ]
}
